# xmcd
#
# Track frame offsets:
#	150
#	12187
#	26455
#	44260
#	60082
#	74042
#	86602
#	101482
#	121930
#	135407
#
# Disc length: 1991 seconds
#
# Revision: 2
# Processed by: cddbd v1.5.2PL0 Copyright (c) Steve Scherf et al.
# Submitted via: audiograbber 1.83.01
#
DISCID=7707c50a
DTITLE=Yankee Grey - Untamed
DYEAR=1999
DGENRE=Country
TTITLE0=All things considered
TTITLE1=Another nine minutes
TTITLE2=This time around
TTITLE3=I should've listened to me
TTITLE4=Untamed
TTITLE5=This ain't it
TTITLE6=That would be me
TTITLE7=There's only one
TTITLE8=I know how you feel
TTITLE9=Tell me something I don't know
EXTD=
EXTT0=
EXTT1=
EXTT2=
EXTT3=
EXTT4=
EXTT5=
EXTT6=
EXTT7=
EXTT8=
EXTT9=
PLAYORDER=
